# xmcd CD database file generated by Grip 3.2.0
# 
# Track frame offsets:
#       150
#       11890
#       22994
#       31559
#       41188
#       50675
#       63742
#       73762
#       85421
#       96466
#       108428
#       119273
#       130006
#       139124
#       151493
#       163409
#       173368
#       184349
#       195557
#       205632
# 
# Disc length: 2887 seconds
# 
# Revision: 3
# Processed by: cddbd v1.5.1PL2 Copyright (c) Steve Scherf et al.
# Submitted via: Grip 3.2.0
# 
DISCID=1c0b4514
DTITLE=Various Artist - Rhythm and Blues Goes Rock and Roll - Vol 2 - Disc 12
DYEAR=2002
DGENRE=Other
TTITLE0=Robert Lockwood - Dig Myself A Hole
TTITLE1=Jimmy Liggins - Talking That Talk
TTITLE2=Neil Darrow - She's A Fine Chick
TTITLE3=Mule Thomas - Blow My Baby Back To Me
TTITLE4=Jimmy Ty - Twisting Linda
TTITLE5=Babs Gonzalez - She's Just Right For Me
TTITLE6=George Young - Buggin' Baby
TTITLE7=Otis Hinton - Walking Down Hill
TTITLE8=Stomp Gordon - The Grind
TTITLE9=Dennis Binder - She's Something Else
TTITLE10=Dirty Red - Mother Fuyer
TTITLE11=Sugar and Sweet - Do The Dive
TTITLE12=El Capris - Ivy League Clean
TTITLE13=Tabby Thomas - Church Members Ball
TTITLE14=Walkin' Willie - Blow Little Willie
TTITLE15=Fairlaines - Johnny Rhythm
TTITLE16=Joe August - Strange Things Happening
TTITLE17=Phil Flowers - Twisting Beat
TTITLE18=Chase Canfil - Woke Up This Morning
TTITLE19=Sultans - You Got Me Goin'
EXTD=YEAR: 2002
EXTT0=
EXTT1=
EXTT2=
EXTT3=
EXTT4=
EXTT5=
EXTT6=
EXTT7=
EXTT8=
EXTT9=
EXTT10=
EXTT11=
EXTT12=
EXTT13=
EXTT14=
EXTT15=
EXTT16=
EXTT17=
EXTT18=
EXTT19=
PLAYORDER=
